<svg width="29" height="28" viewBox="0 0 29 28" fill="none" xmlns="http://www.w3.org/2000/svg">
<path d="M20.3333 11.6667H22.6666C24.9999 11.6667 26.1666 10.5 26.1666 8.16668V5.83334C26.1666 3.50001 24.9999 2.33334 22.6666 2.33334H20.3333C17.9999 2.33334 16.8333 3.50001 16.8333 5.83334V8.16668C16.8333 10.5 17.9999 11.6667 20.3333 11.6667Z" stroke="#9099AC" stroke-width="1.5" stroke-miterlimit="10" stroke-linecap="round" stroke-linejoin="round"/>
<path d="M6.33325 25.6667H8.66659C10.9999 25.6667 12.1666 24.5 12.1666 22.1667V19.8333C12.1666 17.5 10.9999 16.3333 8.66659 16.3333H6.33325C3.99992 16.3333 2.83325 17.5 2.83325 19.8333V22.1667C2.83325 24.5 3.99992 25.6667 6.33325 25.6667Z" stroke="#9099AC" stroke-width="1.5" stroke-miterlimit="10" stroke-linecap="round" stroke-linejoin="round"/>
<path d="M7.49992 11.6667C10.0772 11.6667 12.1666 9.57734 12.1666 7.00001C12.1666 4.42268 10.0772 2.33334 7.49992 2.33334C4.92259 2.33334 2.83325 4.42268 2.83325 7.00001C2.83325 9.57734 4.92259 11.6667 7.49992 11.6667Z" stroke="#9099AC" stroke-width="1.5" stroke-miterlimit="10" stroke-linecap="round" stroke-linejoin="round"/>
<path d="M21.4999 25.6667C24.0772 25.6667 26.1666 23.5773 26.1666 21C26.1666 18.4227 24.0772 16.3333 21.4999 16.3333C18.9226 16.3333 16.8333 18.4227 16.8333 21C16.8333 23.5773 18.9226 25.6667 21.4999 25.6667Z" stroke="#9099AC" stroke-width="1.5" stroke-miterlimit="10" stroke-linecap="round" stroke-linejoin="round"/>
</svg>
