<svg width="29" height="28" viewBox="0 0 29 28" fill="none" xmlns="http://www.w3.org/2000/svg">
<path d="M20.3333 26.5417H8.66658C3.52159 26.5417 1.95825 24.9783 1.95825 19.8333V8.16668C1.95825 3.02168 3.52159 1.45834 8.66658 1.45834H10.4166C12.4583 1.45834 13.0999 2.12334 13.9166 3.20834L15.6666 5.54168C16.0516 6.05501 16.1099 6.12501 16.8333 6.12501H20.3333C25.4783 6.12501 27.0416 7.68834 27.0416 12.8333V19.8333C27.0416 24.9783 25.4783 26.5417 20.3333 26.5417ZM8.66658 3.20834C4.48992 3.20834 3.70825 4.00168 3.70825 8.16668V19.8333C3.70825 23.9983 4.48992 24.7917 8.66658 24.7917H20.3333C24.5099 24.7917 25.2916 23.9983 25.2916 19.8333V12.8333C25.2916 8.66834 24.5099 7.87501 20.3333 7.87501H16.8333C15.3399 7.87501 14.8499 7.36168 14.2666 6.59168L12.5166 4.25834C11.9099 3.45334 11.7233 3.20834 10.4166 3.20834H8.66658Z" fill="#C4CBDA"/>
<path d="M23.8333 8.31834C23.3549 8.31834 22.9583 7.92168 22.9583 7.44334V5.83334C22.9583 3.99001 22.1766 3.20834 20.3333 3.20834H9.83325C9.35492 3.20834 8.95825 2.81168 8.95825 2.33334C8.95825 1.85501 9.35492 1.45834 9.83325 1.45834H20.3333C23.1566 1.45834 24.7083 3.01001 24.7083 5.83334V7.44334C24.7083 7.92168 24.3116 8.31834 23.8333 8.31834Z" fill="#C4CBDA"/>
</svg>
