<svg width="29" height="28" viewBox="0 0 29 28" fill="none" xmlns="http://www.w3.org/2000/svg">
<path fill-rule="evenodd" clip-rule="evenodd" d="M13.3333 4.375C8.66192 4.375 4.875 8.16192 4.875 12.8333C4.875 17.5047 8.66192 21.2917 13.3333 21.2917C18.0047 21.2917 21.7917 17.5047 21.7917 12.8333C21.7917 8.16192 18.0047 4.375 13.3333 4.375ZM3.125 12.8333C3.125 7.19543 7.69543 2.625 13.3333 2.625C18.9712 2.625 23.5417 7.19543 23.5417 12.8333C23.5417 15.3373 22.6402 17.6306 21.144 19.4066L25.6187 23.8813C25.9604 24.223 25.9604 24.777 25.6187 25.1187C25.277 25.4604 24.723 25.4604 24.3813 25.1187L19.9066 20.644C18.1306 22.1402 15.8373 23.0417 13.3333 23.0417C7.69543 23.0417 3.125 18.4712 3.125 12.8333Z" fill="#9099AC"/>
</svg>
