<svg width="29" height="28" viewBox="0 0 29 28" fill="none" xmlns="http://www.w3.org/2000/svg">
<path d="M14.5 18.375C12.085 18.375 10.125 16.415 10.125 14C10.125 11.585 12.085 9.625 14.5 9.625C16.915 9.625 18.875 11.585 18.875 14C18.875 16.415 16.915 18.375 14.5 18.375ZM14.5 11.375C13.0533 11.375 11.875 12.5533 11.875 14C11.875 15.4467 13.0533 16.625 14.5 16.625C15.9467 16.625 17.125 15.4467 17.125 14C17.125 12.5533 15.9467 11.375 14.5 11.375Z" fill="#9099AC"/>
<path d="M18.2449 25.8883C17.9999 25.8883 17.7549 25.8533 17.5099 25.795C16.7866 25.5967 16.1799 25.1417 15.7949 24.5L15.6549 24.2667C14.9666 23.0767 14.0216 23.0767 13.3333 24.2667L13.2049 24.4883C12.8199 25.1417 12.2133 25.6083 11.4899 25.795C10.7549 25.9933 9.99658 25.8883 9.35492 25.5033L7.34825 24.3483C6.63658 23.94 6.12325 23.275 5.90159 22.47C5.69159 21.665 5.79659 20.8367 6.20492 20.125C6.54325 19.53 6.63659 18.9933 6.43825 18.655C6.23992 18.3167 5.73825 18.1183 5.04992 18.1183C3.34659 18.1183 1.95825 16.73 1.95825 15.0267V12.9733C1.95825 11.27 3.34659 9.88168 5.04992 9.88168C5.73825 9.88168 6.23992 9.68334 6.43825 9.34501C6.63659 9.00668 6.55492 8.47001 6.20492 7.87501C5.79659 7.16334 5.69159 6.32334 5.90159 5.53001C6.11159 4.72501 6.62492 4.06001 7.34825 3.65168L9.36658 2.49668C10.6849 1.71501 12.4233 2.17001 13.2166 3.51168L13.3566 3.74501C14.0449 4.93501 14.9899 4.93501 15.6783 3.74501L15.8066 3.52334C16.5999 2.17001 18.3383 1.71501 19.6683 2.50834L21.6749 3.66334C22.3866 4.07168 22.8999 4.73668 23.1216 5.54168C23.3316 6.34668 23.2266 7.17501 22.8183 7.88668C22.4799 8.48168 22.3866 9.01834 22.5849 9.35668C22.7833 9.69501 23.2849 9.89334 23.9733 9.89334C25.6766 9.89334 27.0649 11.2817 27.0649 12.985V15.0383C27.0649 16.7417 25.6766 18.13 23.9733 18.13C23.2849 18.13 22.7833 18.3283 22.5849 18.6667C22.3866 19.005 22.4683 19.5417 22.8183 20.1367C23.2266 20.8483 23.3433 21.6883 23.1216 22.4817C22.9116 23.2867 22.3983 23.9517 21.6749 24.36L19.6566 25.515C19.2133 25.76 18.7349 25.8883 18.2449 25.8883ZM14.4999 21.5717C15.5383 21.5717 16.5066 22.225 17.1716 23.38L17.2999 23.6017C17.4399 23.8467 17.6733 24.0217 17.9533 24.0917C18.2333 24.1617 18.5133 24.1267 18.7466 23.9867L20.7649 22.82C21.0683 22.645 21.3016 22.3533 21.3949 22.0033C21.4883 21.6533 21.4416 21.2917 21.2666 20.9883C20.6016 19.845 20.5199 18.6667 21.0333 17.7683C21.5466 16.87 22.6083 16.3567 23.9383 16.3567C24.6849 16.3567 25.2799 15.7617 25.2799 15.015V12.9617C25.2799 12.2267 24.6849 11.62 23.9383 11.62C22.6083 11.62 21.5466 11.1067 21.0333 10.2083C20.5199 9.31001 20.6016 8.13168 21.2666 6.98834C21.4416 6.68501 21.4883 6.32334 21.3949 5.97334C21.3016 5.62334 21.0799 5.34334 20.7766 5.15668L18.7583 4.00168C18.2566 3.69834 17.5916 3.87334 17.2883 4.38668L17.1599 4.60834C16.4949 5.76334 15.5266 6.41668 14.4883 6.41668C13.4499 6.41668 12.4816 5.76334 11.8166 4.60834L11.6883 4.37501C11.3966 3.88501 10.7433 3.71001 10.2416 4.00168L8.22325 5.16834C7.91992 5.34334 7.68658 5.63501 7.59325 5.98501C7.49992 6.33501 7.54659 6.69668 7.72159 7.00001C8.38659 8.14334 8.46825 9.32168 7.95492 10.22C7.44159 11.1183 6.37992 11.6317 5.04992 11.6317C4.30325 11.6317 3.70825 12.2267 3.70825 12.9733V15.0267C3.70825 15.7617 4.30325 16.3683 5.04992 16.3683C6.37992 16.3683 7.44159 16.8817 7.95492 17.78C8.46825 18.6783 8.38659 19.8567 7.72159 21C7.54659 21.3033 7.49992 21.665 7.59325 22.015C7.68658 22.365 7.90825 22.645 8.21159 22.8317L10.2299 23.9867C10.4749 24.1383 10.7666 24.1733 11.0349 24.1033C11.3149 24.0333 11.5483 23.8467 11.6999 23.6017L11.8283 23.38C12.4933 22.2367 13.4616 21.5717 14.4999 21.5717Z" fill="#9099AC"/>
</svg>
